<svg xmlns="http://www.w3.org/2000/svg" version="1.1" xmlns:xlink="http://www.w3.org/1999/xlink" xmlns:svgjs="http://svgjs.com/svgjs" width="1920" height="1080" preserveAspectRatio="none" viewBox="0 0 1920 1080"><g mask="url(&quot;#SvgjsMask1050&quot;)" fill="none"><rect width="1920" height="1080" x="0" y="0" fill="rgba(29, 29, 29, 1)"></rect><path d="M84.10054304889604 233.02920821625145L110.16119035920697 367.09961599529754 298.23647837262064 260.97344114030807z" fill="rgba(28, 83, 142, 0.4)" class="triangle-float1"></path><path d="M152.00620407563724 29.512939275317308L360.18010653965973 113.85152384247888 336.25180219116044-81.02887620571065z" fill="rgba(28, 83, 142, 0.4)" class="triangle-float1"></path><path d="M124.57251433529288 507.6925650881292L59.41921621415359 604.2863018524048 236.88647042113655 653.7193806519759z" fill="rgba(28, 83, 142, 0.4)" class="triangle-float1"></path><path d="M41.115703692492474 1077.2983847525034L207.50147782308156 800.9827865441766-74.28081737268244 791.1427319667897z" fill="rgba(28, 83, 142, 0.4)" class="triangle-float3"></path><path d="M513.6183540240967 647.5025885945524L395.65516636595294 496.5165936446896 228.15776777023046 748.9543726068366z" fill="rgba(28, 83, 142, 0.4)" class="triangle-float1"></path><path d="M1260.5293827321075 658.6722072837517L1342.7285396198683 504.0780774957845 1069.737766494037 458.07640705812673z" fill="rgba(28, 83, 142, 0.4)" class="triangle-float2"></path><path d="M219.33973452269794-77.16309020205559L129.53472726320203 66.55496379609792 390.01431189018024 129.40344768626505z" fill="rgba(28, 83, 142, 0.4)" class="triangle-float3"></path><path d="M1550.4458674756215 163.08089485827156L1374.149733994868 216.98003188586927 1543.1465062766413 454.47466359320055z" fill="rgba(28, 83, 142, 0.4)" class="triangle-float3"></path><path d="M335.2502756099442 443.2190209079187L145.78964066493185 216.99112632035335 53.34878322090128 457.807793178716z" fill="rgba(28, 83, 142, 0.4)" class="triangle-float2"></path><path d="M855.2713441225518 499.11672604549807L691.2056628269938 361.44927338154616 566.737324478845 676.381521656859z" fill="rgba(28, 83, 142, 0.4)" class="triangle-float2"></path><path d="M791.9251788348206 193.25711954754297L646.9678679577585 287.39349792059926 860.651090955874 457.7612750496644z" fill="rgba(28, 83, 142, 0.4)" class="triangle-float3"></path><path d="M1172.5834750886504 408.55226128050515L1141.0402110620093 209.39593025450478 858.0773465363293 356.28899180746674z" fill="rgba(28, 83, 142, 0.4)" class="triangle-float3"></path><path d="M1257.112245543129 864.593380420027L1128.2580530627647 1079.0427691799416 1471.5616343030435 993.4475729003913z" fill="rgba(28, 83, 142, 0.4)" class="triangle-float3"></path><path d="M1669.12539600508 962.0377152087323L1852.593894524468 1205.508636099358 1912.5963168957055 778.5692166893442z" fill="rgba(28, 83, 142, 0.4)" class="triangle-float3"></path><path d="M1484.8857467269686 15.151247320070404L1331.1146348633451-63.199047571500365 1406.535451835398 168.9223591836938z" fill="rgba(28, 83, 142, 0.4)" class="triangle-float2"></path><path d="M1476.4203618163651 798.8308718669666L1389.9167278880775 572.8376865601051 1253.9470629533337 734.880023229917z" fill="rgba(28, 83, 142, 0.4)" class="triangle-float2"></path><path d="M1073.2839786424424-166.0961903838701L892.7431641786045-57.61632484538853 1145.7333697182457 158.9549640811274z" fill="rgba(28, 83, 142, 0.4)" class="triangle-float1"></path><path d="M1665.6501395919213 25.321084990951256L1584.290465693419-50.54803832264258 1511.1666176722792 109.42603418190768z" fill="rgba(28, 83, 142, 0.4)" class="triangle-float3"></path><path d="M1659.757794303844 385.5767163495153L1447.7679884915442 173.18246336141863 1375.46239197756 425.34204501482077z" fill="rgba(28, 83, 142, 0.4)" class="triangle-float1"></path><path d="M230.41519503038512 575.7267342943671L460.0162238648941 531.0968153311769 185.7852760671949 346.1257054598582z" fill="rgba(28, 83, 142, 0.4)" class="triangle-float3"></path></g><defs><mask id="SvgjsMask1050"><rect width="1920" height="1080" fill="#ffffff"></rect></mask><style>
            @keyframes float1 {
                0%{transform: translate(0, 0)}
                50%{transform: translate(-10px, 0)}
                100%{transform: translate(0, 0)}
            }

            .triangle-float1 {
                animation: float1 5s infinite;
            }

            @keyframes float2 {
                0%{transform: translate(0, 0)}
                50%{transform: translate(-5px, -5px)}
                100%{transform: translate(0, 0)}
            }

            .triangle-float2 {
                animation: float2 4s infinite;
            }

            @keyframes float3 {
                0%{transform: translate(0, 0)}
                50%{transform: translate(0, -10px)}
                100%{transform: translate(0, 0)}
            }

            .triangle-float3 {
                animation: float3 6s infinite;
            }
        </style></defs></svg>